<svg width="170" height="162" viewBox="0 0 170 162" fill="none" xmlns="http://www.w3.org/2000/svg">
<g clip-path="url(#clip0)">
<path d="M102.895 9.08907L14.327 28.111L40.5837 150.602L129.152 131.58L102.895 9.08907Z" fill="#E0E0E0"/>
<g opacity="0.5">
<path opacity="0.5" d="M101.844 11.4815L16.2686 29.8605L41.6378 148.211L127.213 129.832L101.844 11.4815Z" fill="url(#paint0_linear)"/>
</g>
<path d="M100.94 12.5866L17.5436 30.4977L42.3523 146.233L125.749 128.322L100.94 12.5866Z" fill="#FAFAFA"/>
<path d="M78.9614 12.0586L37.5896 20.9441L39.7399 30.9755L81.1117 22.0901L78.9614 12.0586Z" fill="url(#paint1_linear)"/>
<path d="M56.174 6.70358C52.9799 7.39032 50.9589 10.6 51.6616 13.8719C52.3643 17.1438 55.5211 19.2435 58.709 18.5567C61.8969 17.87 63.9241 14.6603 63.2214 11.3884C62.5187 8.11649 59.3681 6.01683 56.174 6.70358ZM58.1784 16.0608C57.5033 16.2219 56.7956 16.1782 56.1454 15.9353C55.4952 15.6923 54.9321 15.2611 54.5276 14.6966C54.1232 14.132 53.8959 13.4597 53.8746 12.7654C53.8533 12.071 54.0391 11.3861 54.4082 10.7978C54.7773 10.2095 55.313 9.74454 55.9471 9.46215C56.5811 9.17976 57.2848 9.09274 57.9685 9.21218C58.6522 9.33161 59.2848 9.65209 59.7859 10.1328C60.2869 10.6135 60.6336 11.2326 60.7818 11.9112C60.8841 12.3549 60.898 12.8144 60.8224 13.2633C60.7469 13.7123 60.5834 14.1419 60.3415 14.5275C60.0996 14.9131 59.784 15.247 59.4128 15.5102C59.0415 15.7733 58.622 15.9604 58.1784 16.0608V16.0608Z" fill="url(#paint2_linear)"/>
<path d="M78.4335 11.7219L37.9331 20.4203L39.9886 30.0094L80.489 21.3111L78.4335 11.7219Z" fill="#4A00E0"/>
<path d="M56.1741 6.70357C55.0546 6.94408 54.0315 7.51147 53.2342 8.33398C52.4368 9.1565 51.9011 10.1972 51.6946 11.3245C51.4882 12.4518 51.6203 13.6151 52.0743 14.6672C52.5283 15.7193 53.2838 16.613 54.2453 17.2354C55.2068 17.8577 56.331 18.1807 57.4758 18.1635C58.6207 18.1463 59.7347 17.7897 60.6771 17.1388C61.6195 16.4878 62.3478 15.5718 62.7701 14.5065C63.1924 13.4412 63.2896 12.2745 63.0494 11.1539C62.89 10.4098 62.5856 9.70445 62.1538 9.07807C61.722 8.45169 61.1711 7.91659 60.5326 7.50333C59.8942 7.09007 59.1807 6.80674 58.4328 6.66951C57.685 6.53229 56.9175 6.54386 56.1741 6.70357V6.70357ZM58.0893 15.6458C57.4431 15.7846 56.7704 15.7285 56.1561 15.4845C55.5418 15.2406 55.0136 14.8197 54.6382 14.2753C54.2629 13.7308 54.0573 13.0871 54.0474 12.4257C54.0375 11.7643 54.2238 11.1147 54.5827 10.5593C54.9417 10.0038 55.4571 9.56742 56.0638 9.30519C56.6706 9.04297 57.3414 8.96673 57.9914 9.08613C58.6414 9.20553 59.2415 9.51519 59.7156 9.97595C60.1898 10.4367 60.5169 11.0279 60.6554 11.6747C60.8411 12.5419 60.6751 13.4475 60.1939 14.1922C59.7127 14.9369 58.9556 15.4598 58.0893 15.6458V15.6458Z" fill="#4A00E0"/>
<path d="M144.039 24.2561H53.4546V149.535H144.039V24.2561Z" fill="#E0E0E0"/>
<g opacity="0.5">
<path opacity="0.5" d="M142.509 26.3745H54.9863V147.419H142.509V26.3745Z" fill="url(#paint3_linear)"/>
</g>
<path d="M141.394 27.2666H56.0994V145.636H141.394V27.2666Z" fill="white"/>
<path d="M120.015 22.1336H77.7018V32.3934H120.015V22.1336Z" fill="url(#paint4_linear)"/>
<path d="M98.8585 12.1187C95.5919 12.1187 92.9429 14.8325 92.9429 18.1812C92.9429 21.5299 95.5919 24.2437 98.8585 24.2437C102.125 24.2437 104.774 21.5299 104.774 18.1812C104.774 14.8325 102.125 12.1187 98.8585 12.1187ZM98.8585 21.6793C98.1641 21.6958 97.4804 21.5047 96.8949 21.1305C96.3094 20.7563 95.8486 20.2159 95.5714 19.5784C95.2941 18.9408 95.213 18.235 95.3383 17.5511C95.4636 16.8671 95.7898 16.2361 96.275 15.7386C96.7603 15.241 97.3827 14.8995 98.0628 14.7577C98.7429 14.6158 99.4497 14.6801 100.093 14.9422C100.737 15.2044 101.287 15.6525 101.675 16.2294C102.063 16.8063 102.27 17.4859 102.27 18.1812C102.277 19.0951 101.922 19.9744 101.282 20.6269C100.643 21.2793 99.7715 21.6517 98.8585 21.6627V21.6793Z" fill="url(#paint5_linear)"/>
<path d="M119.57 21.6938H78.1474V31.5012H119.57V21.6938Z" fill="#4A00E0"/>
<path d="M98.8585 12.1187C97.7135 12.1187 96.5942 12.4586 95.6422 13.0953C94.6901 13.7321 93.9481 14.6371 93.51 15.696C93.0718 16.7548 92.9571 17.92 93.1805 19.0441C93.4039 20.1682 93.9553 21.2007 94.7649 22.0111C95.5746 22.8215 96.6061 23.3734 97.7291 23.597C98.8521 23.8206 100.016 23.7059 101.074 23.2673C102.132 22.8287 103.036 22.0859 103.672 21.133C104.308 20.18 104.648 19.0597 104.648 17.9135C104.648 16.3767 104.038 14.9027 102.952 13.816C101.866 12.7292 100.394 12.1187 98.8585 12.1187ZM98.8585 21.2581C98.1982 21.2573 97.5529 21.0606 97.0042 20.693C96.4554 20.3253 96.0278 19.8032 95.7753 19.1925C95.5228 18.5818 95.4568 17.9098 95.5855 17.2616C95.7142 16.6133 96.0319 16.0177 96.4986 15.5501C96.9652 15.0824 97.5598 14.7636 98.2073 14.634C98.8547 14.5043 99.5261 14.5696 100.137 14.8216C100.747 15.0736 101.269 15.501 101.637 16.0498C102.005 16.5986 102.202 17.2443 102.204 17.9052C102.204 18.3446 102.117 18.7797 101.949 19.1855C101.78 19.5913 101.534 19.9599 101.223 20.2703C100.912 20.5807 100.544 20.8268 100.138 20.9945C99.7323 21.1622 99.2975 21.2482 98.8585 21.2477V21.2581Z" fill="#4A00E0"/>
<g opacity="0.5">
<path opacity="0.5" d="M3.94452 152.921H3.16516V157.346H3.94452V152.921Z" fill="#47E6B1"/>
<path opacity="0.5" d="M5.76648 155.525V154.745H1.34528V155.525H5.76648Z" fill="#47E6B1"/>
</g>
<g opacity="0.5">
<path opacity="0.5" d="M94.3627 0H93.5833V4.42548H94.3627V0Z" fill="#47E6B1"/>
<path opacity="0.5" d="M96.1846 2.60175V1.82165L91.7634 1.82165V2.60175H96.1846Z" fill="#47E6B1"/>
</g>
<path opacity="0.5" d="M159.827 160.288C159.612 160.195 159.439 160.025 159.341 159.812C159.242 159.599 159.226 159.357 159.294 159.133C159.305 159.098 159.312 159.063 159.315 159.027V159.027C159.321 158.924 159.294 158.822 159.238 158.736C159.182 158.65 159.099 158.584 159.003 158.548C158.906 158.513 158.801 158.509 158.702 158.538C158.603 158.567 158.517 158.627 158.455 158.709V158.709C158.433 158.738 158.415 158.77 158.401 158.803C158.307 159.018 158.138 159.191 157.925 159.289C157.712 159.388 157.471 159.404 157.246 159.336C157.212 159.325 157.176 159.318 157.141 159.315V159.315C157.038 159.309 156.936 159.336 156.85 159.392C156.764 159.449 156.698 159.531 156.662 159.628C156.627 159.724 156.623 159.83 156.652 159.929C156.681 160.027 156.741 160.114 156.823 160.176V160.176C156.852 160.198 156.884 160.216 156.917 160.23C157.132 160.324 157.305 160.493 157.403 160.706C157.501 160.92 157.518 161.161 157.449 161.386C157.438 161.42 157.431 161.456 157.429 161.492V161.492C157.422 161.594 157.449 161.696 157.506 161.783C157.562 161.869 157.644 161.935 157.741 161.97C157.837 162.006 157.943 162.009 158.042 161.98C158.14 161.951 158.227 161.891 158.289 161.809V161.809C158.31 161.78 158.328 161.749 158.343 161.716C158.436 161.501 158.606 161.327 158.819 161.229C159.031 161.131 159.273 161.114 159.497 161.183C159.532 161.194 159.567 161.201 159.603 161.203C159.706 161.209 159.808 161.182 159.894 161.126C159.98 161.07 160.045 160.987 160.081 160.891C160.117 160.794 160.12 160.689 160.091 160.59C160.062 160.491 160.002 160.404 159.92 160.342V160.342C159.891 160.321 159.86 160.303 159.827 160.288V160.288Z" fill="#4D8AF0"/>
<path opacity="0.5" d="M28.3285 117.743C28.1135 117.649 27.9405 117.48 27.8422 117.267C27.744 117.054 27.7275 116.812 27.7958 116.587C27.8068 116.553 27.8138 116.518 27.8165 116.482V116.482C27.8227 116.379 27.7957 116.277 27.7394 116.191C27.6832 116.105 27.6007 116.039 27.5042 116.003C27.4077 115.968 27.3023 115.964 27.2037 115.993C27.105 116.022 27.0183 116.082 26.9563 116.164V116.164C26.9348 116.193 26.9167 116.224 26.9024 116.258C26.8089 116.473 26.6395 116.646 26.4266 116.744C26.2137 116.843 25.9722 116.859 25.7479 116.791C25.7136 116.78 25.6781 116.773 25.6422 116.77V116.77C25.5395 116.764 25.4376 116.791 25.3515 116.847C25.2654 116.904 25.1997 116.986 25.1641 117.083C25.1286 117.179 25.125 117.285 25.154 117.383C25.183 117.482 25.243 117.569 25.3251 117.631V117.631C25.3539 117.653 25.3852 117.671 25.4183 117.685C25.6333 117.779 25.8064 117.948 25.9046 118.161C26.0028 118.374 26.0193 118.616 25.951 118.841C25.94 118.875 25.933 118.911 25.9303 118.946C25.9241 119.049 25.9511 119.151 26.0074 119.237C26.0636 119.324 26.1461 119.389 26.2426 119.425C26.3391 119.461 26.4445 119.464 26.5432 119.435C26.6418 119.406 26.7286 119.346 26.7905 119.264V119.264C26.8121 119.235 26.8301 119.204 26.8444 119.171C26.938 118.955 27.1073 118.782 27.3202 118.684C27.5331 118.586 27.7746 118.569 27.9989 118.637C28.0332 118.648 28.0687 118.655 28.1046 118.658C28.2073 118.664 28.3092 118.637 28.3953 118.581C28.4814 118.525 28.5471 118.442 28.5827 118.345C28.6183 118.249 28.6218 118.143 28.5928 118.045C28.5639 117.946 28.5039 117.859 28.4218 117.797V117.797C28.3929 117.775 28.3616 117.757 28.3285 117.743Z" fill="#FDD835"/>
<path opacity="0.5" d="M137.856 14.1458C137.641 14.0521 137.468 13.8826 137.369 13.6695C137.271 13.4564 137.255 13.2146 137.323 12.9901C137.334 12.9558 137.341 12.9203 137.344 12.8843C137.35 12.7816 137.323 12.6795 137.266 12.5934C137.21 12.5072 137.128 12.4414 137.031 12.4058C136.935 12.3702 136.829 12.3666 136.731 12.3956C136.632 12.4247 136.545 12.4847 136.483 12.5669V12.5669C136.462 12.5958 136.444 12.6271 136.429 12.6602C136.336 12.8754 136.167 13.0486 135.954 13.147C135.741 13.2453 135.499 13.2618 135.275 13.1935C135.241 13.1824 135.205 13.1755 135.169 13.1727V13.1727C135.067 13.1665 134.965 13.1936 134.879 13.2499C134.792 13.3062 134.727 13.3887 134.691 13.4853C134.656 13.5819 134.652 13.6874 134.681 13.7862C134.71 13.8849 134.77 13.9717 134.852 14.0337V14.0337C134.881 14.0553 134.912 14.0734 134.945 14.0877C135.16 14.1813 135.333 14.3509 135.432 14.5639C135.53 14.777 135.546 15.0188 135.478 15.2433C135.467 15.2777 135.46 15.3132 135.457 15.3491V15.3491C135.451 15.4519 135.478 15.5539 135.534 15.6401C135.591 15.7263 135.673 15.792 135.77 15.8276C135.866 15.8633 135.972 15.8668 136.07 15.8378C136.169 15.8088 136.256 15.7488 136.318 15.6666V15.6666C136.339 15.6377 136.357 15.6063 136.371 15.5732C136.465 15.358 136.634 15.1848 136.847 15.0865C137.06 14.9882 137.302 14.9716 137.526 15.04C137.56 15.051 137.596 15.058 137.632 15.0607C137.734 15.0669 137.836 15.0399 137.922 14.9836C138.008 14.9273 138.074 14.8447 138.11 14.7481C138.145 14.6515 138.149 14.5461 138.12 14.4473C138.091 14.3485 138.031 14.2617 137.949 14.1997V14.1997C137.92 14.1781 137.889 14.16 137.856 14.1458V14.1458Z" fill="#FDD835"/>
<path opacity="0.5" d="M168.441 66.8076C169.303 66.8076 170.002 66.1081 170.002 65.2453C170.002 64.3824 169.303 63.683 168.441 63.683C167.579 63.683 166.88 64.3824 166.88 65.2453C166.88 66.1081 167.579 66.8076 168.441 66.8076Z" fill="#F55F44"/>
<path opacity="0.5" d="M47.825 156.475C48.687 156.475 49.3857 155.775 49.3857 154.913C49.3857 154.05 48.687 153.35 47.825 153.35C46.9629 153.35 46.2642 154.05 46.2642 154.913C46.2642 155.775 46.9629 156.475 47.825 156.475Z" fill="#F55F44"/>
<path opacity="0.5" d="M152.413 100.576C153.275 100.576 153.973 99.877 153.973 99.0142C153.973 98.1513 153.275 97.4519 152.413 97.4519C151.551 97.4519 150.852 98.1513 150.852 99.0142C150.852 99.877 151.551 100.576 152.413 100.576Z" fill="#F55F44"/>
<path opacity="0.5" d="M18.0621 21.5527C18.9241 21.5527 19.6229 20.8532 19.6229 19.9904C19.6229 19.1276 18.9241 18.4281 18.0621 18.4281C17.2001 18.4281 16.5013 19.1276 16.5013 19.9904C16.5013 20.8532 17.2001 21.5527 18.0621 21.5527Z" fill="#4D8AF0"/>
<path opacity="0.5" d="M1.56079 64.1705C2.4228 64.1705 3.12159 63.471 3.12159 62.6082C3.12159 61.7454 2.4228 61.0459 1.56079 61.0459C0.698791 61.0459 0 61.7454 0 62.6082C0 63.471 0.698791 64.1705 1.56079 64.1705Z" fill="#47E6B1"/>
</g>
<defs>
<linearGradient id="paint0_linear" x1="84.4243" y1="139.022" x2="59.0082" y2="20.6813" gradientUnits="userSpaceOnUse">
<stop stop-color="#808080" stop-opacity="0.25"/>
<stop offset="0.54" stop-color="#808080" stop-opacity="0.12"/>
<stop offset="1" stop-color="#808080" stop-opacity="0.1"/>
</linearGradient>
<linearGradient id="paint1_linear" x1="22760.3" y1="-2966.69" x2="22653.7" y2="-3462.7" gradientUnits="userSpaceOnUse">
<stop stop-color="#808080" stop-opacity="0.25"/>
<stop offset="0.54" stop-color="#808080" stop-opacity="0.12"/>
<stop offset="1" stop-color="#808080" stop-opacity="0.1"/>
</linearGradient>
<linearGradient id="paint2_linear" x1="6646.07" y1="338.388" x2="6497.45" y2="-353.59" gradientUnits="userSpaceOnUse">
<stop stop-color="#808080" stop-opacity="0.25"/>
<stop offset="0.54" stop-color="#808080" stop-opacity="0.12"/>
<stop offset="1" stop-color="#808080" stop-opacity="0.1"/>
</linearGradient>
<linearGradient id="paint3_linear" x1="41750.7" y1="86031.8" x2="41750.7" y2="15413.5" gradientUnits="userSpaceOnUse">
<stop stop-color="#808080" stop-opacity="0.25"/>
<stop offset="0.54" stop-color="#808080" stop-opacity="0.12"/>
<stop offset="1" stop-color="#808080" stop-opacity="0.1"/>
</linearGradient>
<linearGradient id="paint4_linear" x1="20258.7" y1="1623.99" x2="20258.7" y2="1116.64" gradientUnits="userSpaceOnUse">
<stop stop-color="#808080" stop-opacity="0.25"/>
<stop offset="0.54" stop-color="#808080" stop-opacity="0.12"/>
<stop offset="1" stop-color="#808080" stop-opacity="0.1"/>
</linearGradient>
<linearGradient id="paint5_linear" x1="7982.8" y1="2150.84" x2="7982.8" y2="1442.26" gradientUnits="userSpaceOnUse">
<stop stop-color="#808080" stop-opacity="0.25"/>
<stop offset="0.54" stop-color="#808080" stop-opacity="0.12"/>
<stop offset="1" stop-color="#808080" stop-opacity="0.1"/>
</linearGradient>
<clipPath id="clip0">
<rect width="170" height="162" fill="white"/>
</clipPath>
</defs>
</svg>
